<mxfile modified="2020-04-21T13:03:10.153Z" host="app.diagrams.net" agent="Mozilla/5.0 (Windows NT 6.1; Win64; x64) AppleWebKit/537.36 (KHTML, like Gecko) Chrome/80.0.3987.122 Safari/537.36" etag="gptgVofdXg-zflZrTyaY" version="12.8.8" type="github">
  <diagram name="Page-1" id="c37626ed-c26b-45fb-9056-f9ebc6bb27b6">
    <mxGraphModel dx="1254" dy="764" grid="1" gridSize="10" guides="1" tooltips="1" connect="1" arrows="1" fold="1" page="0" pageScale="1" pageWidth="1100" pageHeight="850" background="#ffffff" math="0" shadow="0">
      <root>
        <mxCell id="0" />
        <mxCell id="1" parent="0" />
        <mxCell id="QfznqnuBZ1IlKUxBiRQi-20" value="LAN" style="whiteSpace=wrap;html=1;rounded=0;shadow=0;comic=0;strokeWidth=1;fontFamily=Verdana;fontSize=14;fillColor=#f5f5f5;strokeColor=none;verticalAlign=top;fontStyle=1" parent="1" vertex="1">
          <mxGeometry x="480" y="1160" width="1240" height="310" as="geometry" />
        </mxCell>
        <mxCell id="1c7a67bf8fd3230f-83" value="DMZ" style="whiteSpace=wrap;html=1;rounded=0;shadow=0;comic=0;strokeWidth=1;fontFamily=Verdana;fontSize=14;fillColor=#f5f5f5;strokeColor=none;verticalAlign=top;fontStyle=1" parent="1" vertex="1">
          <mxGeometry x="479" y="160" width="1240" height="394" as="geometry" />
        </mxCell>
        <mxCell id="QfznqnuBZ1IlKUxBiRQi-1" value="DMZ F5 VIP" style="shape=mxgraph.cisco.misc.vip;html=1;dashed=0;fillColor=#036897;strokeColor=#ffffff;strokeWidth=2;verticalLabelPosition=bottom;verticalAlign=top" parent="1" vertex="1">
          <mxGeometry x="1065" y="207" width="64" height="86" as="geometry" />
        </mxCell>
        <mxCell id="QfznqnuBZ1IlKUxBiRQi-4" value="External Users" style="aspect=fixed;perimeter=ellipsePerimeter;html=1;align=center;shadow=0;dashed=0;spacingTop=3;image;image=img/lib/active_directory/user_accounts.svg;" parent="1" vertex="1">
          <mxGeometry x="1071" y="32" width="50" height="48.5" as="geometry" />
        </mxCell>
        <mxCell id="QfznqnuBZ1IlKUxBiRQi-6" value="IHS" style="rounded=0;whiteSpace=wrap;html=1;" parent="1" vertex="1">
          <mxGeometry x="639" y="354" width="190" height="60" as="geometry" />
        </mxCell>
        <mxCell id="QfznqnuBZ1IlKUxBiRQi-7" value="IHS" style="rounded=0;whiteSpace=wrap;html=1;" parent="1" vertex="1">
          <mxGeometry x="1389" y="353" width="190" height="60" as="geometry" />
        </mxCell>
        <mxCell id="QfznqnuBZ1IlKUxBiRQi-8" value="" style="aspect=fixed;pointerEvents=1;shadow=0;dashed=0;html=1;strokeColor=none;labelPosition=center;verticalLabelPosition=bottom;verticalAlign=top;align=center;fillColor=#00188D;shape=mxgraph.mscae.enterprise.firewall" parent="1" vertex="1">
          <mxGeometry x="1057" y="457" width="76" height="67" as="geometry" />
        </mxCell>
        <mxCell id="QfznqnuBZ1IlKUxBiRQi-9" value="ISEC" style="whiteSpace=wrap;html=1;rounded=0;shadow=0;comic=0;strokeWidth=1;fontFamily=Verdana;fontSize=14;fillColor=#f5f5f5;strokeColor=none;verticalAlign=top;fontStyle=1" parent="1" vertex="1">
          <mxGeometry x="479" y="559" width="1240" height="575" as="geometry" />
        </mxCell>
        <mxCell id="QfznqnuBZ1IlKUxBiRQi-11" value="Edge (Zuul)" style="rounded=0;whiteSpace=wrap;html=1;" parent="1" vertex="1">
          <mxGeometry x="636" y="764" width="404" height="60" as="geometry" />
        </mxCell>
        <mxCell id="QfznqnuBZ1IlKUxBiRQi-12" value="Edge (Zuul)" style="rounded=0;whiteSpace=wrap;html=1;" parent="1" vertex="1">
          <mxGeometry x="1290" y="760" width="404" height="60" as="geometry" />
        </mxCell>
        <mxCell id="QfznqnuBZ1IlKUxBiRQi-13" value="Gateway F5 VIP" style="shape=mxgraph.cisco.misc.vip;html=1;dashed=0;fillColor=#036897;strokeColor=#ffffff;strokeWidth=2;verticalLabelPosition=bottom;verticalAlign=top" parent="1" vertex="1">
          <mxGeometry x="1063" y="650" width="64" height="86" as="geometry" />
        </mxCell>
        <mxCell id="QfznqnuBZ1IlKUxBiRQi-14" value="CX" style="rounded=0;whiteSpace=wrap;html=1;" parent="1" vertex="1">
          <mxGeometry x="629" y="1044" width="190" height="60" as="geometry" />
        </mxCell>
        <mxCell id="QfznqnuBZ1IlKUxBiRQi-15" value="CX" style="rounded=0;whiteSpace=wrap;html=1;" parent="1" vertex="1">
          <mxGeometry x="1350" y="1040" width="190" height="60" as="geometry" />
        </mxCell>
        <mxCell id="QfznqnuBZ1IlKUxBiRQi-16" value="Auth (DBS)" style="rounded=0;whiteSpace=wrap;html=1;" parent="1" vertex="1">
          <mxGeometry x="636" y="857" width="87" height="60" as="geometry" />
        </mxCell>
        <mxCell id="QfznqnuBZ1IlKUxBiRQi-17" value="Auth (DBS)" style="rounded=0;whiteSpace=wrap;html=1;" parent="1" vertex="1">
          <mxGeometry x="1350" y="857" width="87" height="60" as="geometry" />
        </mxCell>
        <mxCell id="QfznqnuBZ1IlKUxBiRQi-19" value="Helpdesk" style="aspect=fixed;perimeter=ellipsePerimeter;html=1;align=center;shadow=0;dashed=0;spacingTop=3;image;image=img/lib/active_directory/user_accounts.svg;" parent="1" vertex="1">
          <mxGeometry x="1637" y="1220" width="50" height="48.5" as="geometry" />
        </mxCell>
        <mxCell id="6oNJGKLIgyjYE0U5j6M9-1" value="SSO VIP" style="shape=mxgraph.cisco.misc.vip;html=1;dashed=0;fillColor=#036897;strokeColor=#ffffff;strokeWidth=2;verticalLabelPosition=bottom;verticalAlign=top" parent="1" vertex="1">
          <mxGeometry x="1080" y="910" width="64" height="86" as="geometry" />
        </mxCell>
        <mxCell id="6oNJGKLIgyjYE0U5j6M9-2" value="" style="endArrow=classic;startArrow=classic;html=1;entryX=1.016;entryY=0.814;entryDx=0;entryDy=0;entryPerimeter=0;exitX=0;exitY=0;exitDx=0;exitDy=0;" parent="1" source="QfznqnuBZ1IlKUxBiRQi-7" target="QfznqnuBZ1IlKUxBiRQi-1" edge="1">
          <mxGeometry width="50" height="50" relative="1" as="geometry">
            <mxPoint x="1310" y="350" as="sourcePoint" />
            <mxPoint x="1360" y="300" as="targetPoint" />
          </mxGeometry>
        </mxCell>
        <mxCell id="6oNJGKLIgyjYE0U5j6M9-5" value="" style="endArrow=classic;startArrow=classic;html=1;entryX=1;entryY=0;entryDx=0;entryDy=0;exitX=-0.047;exitY=0.826;exitDx=0;exitDy=0;exitPerimeter=0;" parent="1" source="QfznqnuBZ1IlKUxBiRQi-1" target="QfznqnuBZ1IlKUxBiRQi-6" edge="1">
          <mxGeometry width="50" height="50" relative="1" as="geometry">
            <mxPoint x="1120" y="480" as="sourcePoint" />
            <mxPoint x="1170" y="430" as="targetPoint" />
          </mxGeometry>
        </mxCell>
        <mxCell id="6oNJGKLIgyjYE0U5j6M9-6" value="" style="endArrow=classic;startArrow=classic;html=1;entryX=1;entryY=1;entryDx=0;entryDy=0;exitX=0;exitY=0.5;exitDx=0;exitDy=0;exitPerimeter=0;" parent="1" source="QfznqnuBZ1IlKUxBiRQi-8" target="QfznqnuBZ1IlKUxBiRQi-6" edge="1">
          <mxGeometry width="50" height="50" relative="1" as="geometry">
            <mxPoint x="840" y="510" as="sourcePoint" />
            <mxPoint x="890" y="460" as="targetPoint" />
          </mxGeometry>
        </mxCell>
        <mxCell id="6oNJGKLIgyjYE0U5j6M9-7" value="" style="endArrow=classic;startArrow=classic;html=1;entryX=0;entryY=1;entryDx=0;entryDy=0;exitX=1.092;exitY=0.597;exitDx=0;exitDy=0;exitPerimeter=0;" parent="1" source="QfznqnuBZ1IlKUxBiRQi-8" target="QfznqnuBZ1IlKUxBiRQi-7" edge="1">
          <mxGeometry width="50" height="50" relative="1" as="geometry">
            <mxPoint x="1250" y="500" as="sourcePoint" />
            <mxPoint x="1300" y="450" as="targetPoint" />
          </mxGeometry>
        </mxCell>
        <mxCell id="6oNJGKLIgyjYE0U5j6M9-8" value="" style="endArrow=classic;startArrow=classic;html=1;entryX=0.5;entryY=1;entryDx=0;entryDy=0;entryPerimeter=0;exitX=0.5;exitY=0;exitDx=0;exitDy=0;exitPerimeter=0;" parent="1" source="QfznqnuBZ1IlKUxBiRQi-13" target="QfznqnuBZ1IlKUxBiRQi-8" edge="1">
          <mxGeometry width="50" height="50" relative="1" as="geometry">
            <mxPoint x="960" y="670" as="sourcePoint" />
            <mxPoint x="1010" y="620" as="targetPoint" />
          </mxGeometry>
        </mxCell>
        <mxCell id="6oNJGKLIgyjYE0U5j6M9-9" value="" style="endArrow=classic;startArrow=classic;html=1;entryX=0;entryY=0.5;entryDx=0;entryDy=0;entryPerimeter=0;exitX=0.5;exitY=0;exitDx=0;exitDy=0;" parent="1" source="QfznqnuBZ1IlKUxBiRQi-11" target="QfznqnuBZ1IlKUxBiRQi-13" edge="1">
          <mxGeometry width="50" height="50" relative="1" as="geometry">
            <mxPoint x="890" y="750" as="sourcePoint" />
            <mxPoint x="940" y="700" as="targetPoint" />
          </mxGeometry>
        </mxCell>
        <mxCell id="6oNJGKLIgyjYE0U5j6M9-10" value="" style="endArrow=classic;startArrow=classic;html=1;entryX=1;entryY=0.5;entryDx=0;entryDy=0;entryPerimeter=0;exitX=0.5;exitY=0;exitDx=0;exitDy=0;" parent="1" source="QfznqnuBZ1IlKUxBiRQi-12" target="QfznqnuBZ1IlKUxBiRQi-13" edge="1">
          <mxGeometry width="50" height="50" relative="1" as="geometry">
            <mxPoint x="1260" y="730" as="sourcePoint" />
            <mxPoint x="1310" y="680" as="targetPoint" />
          </mxGeometry>
        </mxCell>
        <mxCell id="6oNJGKLIgyjYE0U5j6M9-11" value="" style="endArrow=classic;startArrow=classic;html=1;entryX=0.25;entryY=1;entryDx=0;entryDy=0;" parent="1" source="QfznqnuBZ1IlKUxBiRQi-16" target="QfznqnuBZ1IlKUxBiRQi-11" edge="1">
          <mxGeometry width="50" height="50" relative="1" as="geometry">
            <mxPoint x="760" y="920" as="sourcePoint" />
            <mxPoint x="810" y="870" as="targetPoint" />
          </mxGeometry>
        </mxCell>
        <mxCell id="6oNJGKLIgyjYE0U5j6M9-12" value="Token Conv." style="rounded=0;whiteSpace=wrap;html=1;" parent="1" vertex="1">
          <mxGeometry x="794.5" y="857" width="87" height="60" as="geometry" />
        </mxCell>
        <mxCell id="6oNJGKLIgyjYE0U5j6M9-13" value="Token Conv." style="rounded=0;whiteSpace=wrap;html=1;direction=south;" parent="1" vertex="1">
          <mxGeometry x="1483.5" y="843.5" width="60" height="87" as="geometry" />
        </mxCell>
        <mxCell id="6oNJGKLIgyjYE0U5j6M9-14" value="Registry" style="rounded=0;whiteSpace=wrap;html=1;" parent="1" vertex="1">
          <mxGeometry x="953" y="857" width="87" height="60" as="geometry" />
        </mxCell>
        <mxCell id="6oNJGKLIgyjYE0U5j6M9-15" value="Registry" style="rounded=0;whiteSpace=wrap;html=1;" parent="1" vertex="1">
          <mxGeometry x="1600" y="857" width="87" height="60" as="geometry" />
        </mxCell>
        <mxCell id="6oNJGKLIgyjYE0U5j6M9-16" value="" style="endArrow=classic;startArrow=classic;html=1;" parent="1" source="6oNJGKLIgyjYE0U5j6M9-12" target="QfznqnuBZ1IlKUxBiRQi-11" edge="1">
          <mxGeometry width="50" height="50" relative="1" as="geometry">
            <mxPoint x="780" y="860" as="sourcePoint" />
            <mxPoint x="830" y="820" as="targetPoint" />
          </mxGeometry>
        </mxCell>
        <mxCell id="6oNJGKLIgyjYE0U5j6M9-19" value="" style="endArrow=classic;startArrow=classic;html=1;entryX=0.871;entryY=1.017;entryDx=0;entryDy=0;entryPerimeter=0;" parent="1" source="6oNJGKLIgyjYE0U5j6M9-14" target="QfznqnuBZ1IlKUxBiRQi-11" edge="1">
          <mxGeometry width="50" height="50" relative="1" as="geometry">
            <mxPoint x="950" y="890" as="sourcePoint" />
            <mxPoint x="1000" y="840" as="targetPoint" />
          </mxGeometry>
        </mxCell>
        <mxCell id="6oNJGKLIgyjYE0U5j6M9-23" value="" style="endArrow=classic;startArrow=classic;html=1;entryX=0.25;entryY=1;entryDx=0;entryDy=0;" parent="1" source="QfznqnuBZ1IlKUxBiRQi-17" target="QfznqnuBZ1IlKUxBiRQi-12" edge="1">
          <mxGeometry width="50" height="50" relative="1" as="geometry">
            <mxPoint x="1170" y="960" as="sourcePoint" />
            <mxPoint x="1220" y="910" as="targetPoint" />
          </mxGeometry>
        </mxCell>
        <mxCell id="6oNJGKLIgyjYE0U5j6M9-24" value="" style="endArrow=classic;startArrow=classic;html=1;" parent="1" source="6oNJGKLIgyjYE0U5j6M9-13" target="QfznqnuBZ1IlKUxBiRQi-12" edge="1">
          <mxGeometry width="50" height="50" relative="1" as="geometry">
            <mxPoint x="1492" y="839.2893218813452" as="sourcePoint" />
            <mxPoint x="1492" y="789.2893218813452" as="targetPoint" />
          </mxGeometry>
        </mxCell>
        <mxCell id="6oNJGKLIgyjYE0U5j6M9-25" value="" style="endArrow=classic;startArrow=classic;html=1;entryX=0.864;entryY=1;entryDx=0;entryDy=0;entryPerimeter=0;" parent="1" source="6oNJGKLIgyjYE0U5j6M9-15" target="QfznqnuBZ1IlKUxBiRQi-12" edge="1">
          <mxGeometry width="50" height="50" relative="1" as="geometry">
            <mxPoint x="1550" y="960" as="sourcePoint" />
            <mxPoint x="1600" y="910" as="targetPoint" />
          </mxGeometry>
        </mxCell>
        <mxCell id="6oNJGKLIgyjYE0U5j6M9-26" value="&lt;h1&gt;IHS&lt;/h1&gt;&lt;p&gt;Configuration updated to render maintenance page content for external IP addresses, allowing a whitelist of internal IP addresses to access application. As this is in DMZ, Ansible does not have access&lt;/p&gt;" style="text;html=1;strokeColor=none;fillColor=none;spacing=5;spacingTop=-20;whiteSpace=wrap;overflow=hidden;rounded=0;" parent="1" vertex="1">
          <mxGeometry x="1460" y="190" width="190" height="150" as="geometry" />
        </mxCell>
        <mxCell id="6oNJGKLIgyjYE0U5j6M9-27" value="Linux firewall rules, modified to restrict access to external" style="text;html=1;strokeColor=none;fillColor=none;align=center;verticalAlign=middle;whiteSpace=wrap;rounded=0;" parent="1" vertex="1">
          <mxGeometry x="1480" y="580" width="200" height="70" as="geometry" />
        </mxCell>
        <mxCell id="6oNJGKLIgyjYE0U5j6M9-28" value="Auth (AIB)" style="rounded=0;whiteSpace=wrap;html=1;" parent="1" vertex="1">
          <mxGeometry x="1350" y="950" width="87" height="60" as="geometry" />
        </mxCell>
        <mxCell id="6oNJGKLIgyjYE0U5j6M9-29" value="Auth (AIB)" style="rounded=0;whiteSpace=wrap;html=1;" parent="1" vertex="1">
          <mxGeometry x="636" y="950" width="87" height="60" as="geometry" />
        </mxCell>
        <mxCell id="6oNJGKLIgyjYE0U5j6M9-30" value="" style="endArrow=classic;startArrow=classic;html=1;exitX=1;exitY=0.5;exitDx=0;exitDy=0;entryX=0.031;entryY=0.593;entryDx=0;entryDy=0;entryPerimeter=0;" parent="1" source="6oNJGKLIgyjYE0U5j6M9-29" target="6oNJGKLIgyjYE0U5j6M9-1" edge="1">
          <mxGeometry width="50" height="50" relative="1" as="geometry">
            <mxPoint x="880" y="1010" as="sourcePoint" />
            <mxPoint x="930" y="960" as="targetPoint" />
          </mxGeometry>
        </mxCell>
        <mxCell id="6oNJGKLIgyjYE0U5j6M9-31" value="" style="endArrow=classic;startArrow=classic;html=1;exitX=0.969;exitY=0.593;exitDx=0;exitDy=0;exitPerimeter=0;" parent="1" source="6oNJGKLIgyjYE0U5j6M9-1" target="6oNJGKLIgyjYE0U5j6M9-28" edge="1">
          <mxGeometry width="50" height="50" relative="1" as="geometry">
            <mxPoint x="1240" y="980" as="sourcePoint" />
            <mxPoint x="1290" y="930" as="targetPoint" />
          </mxGeometry>
        </mxCell>
      </root>
    </mxGraphModel>
  </diagram>
</mxfile>
